<svg width="512" height="512" viewBox="0 0 512 512" fill="none" xmlns="http://www.w3.org/2000/svg">
<defs>
<linearGradient id="grad1" x1="0%" y1="0%" x2="100%" y2="100%">
<stop offset="0%" style="stop-color:#06b6d4;stop-opacity:1" />
<stop offset="100%" style="stop-color:#3b82f6;stop-opacity:1" />
</linearGradient>
</defs>
<path d="M256 32C132.3 32 32 121.7 32 232c0 63.4 32.4 120.2 84.1 159.2 -3.4 29.5-21.7 64.6-53.7 88.2-4.1 3-5.3 8.6-2.6 13 2.1 3.5 6.1 5.4 10.1 5.4 39.4 0 85.5-16 119.5-44.5 21.2 5.9 43.6 9 66.6 9 123.7 0 224-89.7 224-200S379.7 32 256 32z" fill="url(#grad1)"/>
<path d="M160 232c0-8.8 7.2-16 16-16s16 7.2 16 16v48c0 8.8-7.2 16-16 16s-16-7.2-16-16v-48zm64-32c0-8.8 7.2-16 16-16s16 7.2 16 16v112c0 8.8-7.2 16-16 16s-16-7.2-16-16V200zm64-16c0-8.8 7.2-16 16-16s16 7.2 16 16v144c0 8.8-7.2 16-16 16s-16-7.2-16-16V184zm64 48c0-8.8 7.2-16 16-16s16 7.2 16 16v48c0 8.8-7.2 16-16 16s-16-7.2-16-16v-48z" fill="white"/>
</svg>
